<?xml version="1.0" encoding="UTF-8" standalone="no"?>
<svg
   xmlns:dc="http://purl.org/dc/elements/1.1/"
   xmlns:cc="http://creativecommons.org/ns#"
   xmlns:rdf="http://www.w3.org/1999/02/22-rdf-syntax-ns#"
   xmlns:svg="http://www.w3.org/2000/svg"
   xmlns="http://www.w3.org/2000/svg"
   id="svg8"
   version="1.1"
   viewBox="0 0 210 297"
   height="297mm"
   width="210mm">
  <defs
     id="defs2" />
  <metadata
     id="metadata5">
    <rdf:RDF>
      <cc:Work
         rdf:about="">
        <dc:format>image/svg+xml</dc:format>
        <dc:type
           rdf:resource="http://purl.org/dc/dcmitype/StillImage" />
        <dc:title></dc:title>
      </cc:Work>
    </rdf:RDF>
  </metadata>
  <g
     id="layer1">
    <g
       id="g3709">
      <path
         points="26.458334,175.29167 76.450418,167.9943 76.450418,129.51498 26.458334,122.40826 "
         d="m 26.458334,122.40826 v 52.88341 l 49.992084,-7.29737 v -38.47932 z"
         style="fill:#353564;fill-rule:evenodd;stroke:none;stroke-linejoin:round"
         id="path3711" />
      <path
         points="78.619048,228.10952 147.8021,186.18845 76.450418,167.9943 26.458334,175.29167 "
         d="M 26.458334,175.29167 78.619048,228.10952 147.8021,186.18845 76.450418,167.9943 Z"
         style="fill:#afafde;fill-rule:evenodd;stroke:none;stroke-linejoin:round"
         id="path3719" />
      <path
         points="147.8021,111.79614 147.8021,186.18845 76.450418,167.9943 76.450418,129.51498 "
         d="M 76.450418,129.51498 147.8021,111.79614 v 74.39231 L 76.450418,167.9943 Z"
         style="fill:#e9e9ff;fill-rule:evenodd;stroke:none;stroke-linejoin:round"
         id="path3721" />
      <path
         points="78.619048,70.970239 147.8021,111.79614 76.450418,129.51498 26.458334,122.40826 "
         d="M 26.458334,122.40826 78.619048,70.970239 147.8021,111.79614 76.450418,129.51498 Z"
         style="fill:#4d4d9f;fill-rule:evenodd;stroke:none;stroke-linejoin:round"
         id="path3713" />
      <path
         points="78.619048,228.10952 147.8021,186.18845 147.8021,111.79614 78.619048,70.970239 "
         d="M 78.619048,70.970239 V 228.10952 L 147.8021,186.18845 v -74.39231 z"
         style="fill:#d7d7ff;fill-rule:evenodd;stroke:none;stroke-linejoin:round"
         id="path3717" />
      <path
         points="78.619048,70.970239 78.619048,228.10952 26.458334,175.29167 26.458334,122.40826 "
         d="M 26.458334,122.40826 78.619048,70.970239 V 228.10952 L 26.458334,175.29167 Z"
         style="fill:#8686bf;fill-rule:evenodd;stroke:none;stroke-linejoin:round"
         id="path3715" />
    </g>
  </g>
</svg>
